<svg width="16" height="55" viewBox="0 0 16 55" fill="none" xmlns="http://www.w3.org/2000/svg">
<path d="M7.29289 54.7071C7.68342 55.0976 8.31658 55.0976 8.7071 54.7071L15.0711 48.3432C15.4616 47.9526 15.4616 47.3195 15.0711 46.9289C14.6805 46.5384 14.0474 46.5384 13.6569 46.9289L8 52.5858L2.34314 46.9289C1.95262 46.5384 1.31945 46.5384 0.92893 46.9289C0.538406 47.3195 0.538406 47.9526 0.92893 48.3432L7.29289 54.7071ZM7 -4.34038e-08L7 54L9 54L9 4.34038e-08L7 -4.34038e-08Z" fill="url(#paint0_linear_2007_4562)"/>
<defs>
<linearGradient id="paint0_linear_2007_4562" x1="7.5" y1="-2.17081e-08" x2="7.5" y2="54" gradientUnits="userSpaceOnUse">
<stop stop-color="#666666" stop-opacity="0"/>
<stop offset="1" stop-color="#FB4156"/>
</linearGradient>
</defs>
</svg>
