<svg width="110" height="110" viewBox="0 0 110 110" fill="none" xmlns="http://www.w3.org/2000/svg">
<g filter="url(#filter0_d_4_5995)">
<rect x="25" y="25" width="60" height="60" rx="30" fill="white"/>
</g>
<path d="M42.9993 63H66.9993V65.6667H42.9993V63ZM67.678 50.3693C67.4982 49.8292 67.1111 49.3826 66.6021 49.1278C66.093 48.873 65.5035 48.8309 64.9633 49.0107L58.9993 51L48.3327 47L45.666 48.3333L53.666 53.6667L48.3327 56.3333L42.9993 53.6667L41.666 55L46.9993 60.3333L66.3954 53.06C66.9158 52.8646 67.3402 52.4751 67.5793 51.9734C67.8185 51.4716 67.8539 50.8966 67.678 50.3693Z" fill="#FB4156"/>
<defs>
<filter id="filter0_d_4_5995" x="0" y="0" width="110" height="110" filterUnits="userSpaceOnUse" color-interpolation-filters="sRGB">
<feFlood flood-opacity="0" result="BackgroundImageFix"/>
<feColorMatrix in="SourceAlpha" type="matrix" values="0 0 0 0 0 0 0 0 0 0 0 0 0 0 0 0 0 0 127 0" result="hardAlpha"/>
<feOffset/>
<feGaussianBlur stdDeviation="12.5"/>
<feComposite in2="hardAlpha" operator="out"/>
<feColorMatrix type="matrix" values="0 0 0 0 0.592 0 0 0 0 0.592 0 0 0 0 0.592 0 0 0 0.25 0"/>
<feBlend mode="normal" in2="BackgroundImageFix" result="effect1_dropShadow_4_5995"/>
<feBlend mode="normal" in="SourceGraphic" in2="effect1_dropShadow_4_5995" result="shape"/>
</filter>
</defs>
</svg>
