<svg width="12" height="12" viewBox="0 0 12 12" fill="none" xmlns="http://www.w3.org/2000/svg">
<path d="M11.6553 1.64358C11.4788 1.46674 11.1923 1.46644 11.0158 1.64283L5.59018 7.05412L3.63263 4.92804C3.46348 4.74443 3.1775 4.73252 2.99358 4.90165C2.80981 5.0708 2.79804 5.35692 2.96719 5.54069L5.24358 8.01291C5.32695 8.10351 5.44362 8.15613 5.56665 8.15869C5.56995 8.15883 5.57314 8.15883 5.5763 8.15883C5.69586 8.15883 5.81087 8.11134 5.89559 8.02692L11.6544 2.28321C11.8314 2.10684 11.8317 1.82041 11.6553 1.64358Z" fill="#1B911F"/>
<path d="M11.5477 5.54773C11.2979 5.54773 11.0955 5.75018 11.0955 6C11.0955 8.80976 8.80976 11.0955 6 11.0955C3.19041 11.0955 0.904523 8.80976 0.904523 6C0.904523 3.19041 3.19041 0.904523 6 0.904523C6.2498 0.904523 6.45227 0.70207 6.45227 0.452273C6.45227 0.202453 6.2498 0 6 0C2.69156 0 0 2.69156 0 6C0 9.3083 2.69156 12 6 12C9.3083 12 12 9.3083 12 6C12 5.7502 11.7975 5.54773 11.5477 5.54773Z" fill="#1B911F"/>
</svg>
