<svg width="21" height="20" viewBox="0 0 21 20" fill="none" xmlns="http://www.w3.org/2000/svg">
<path d="M16.7232 3.95464H14.6702C14.6525 3.67929 14.4235 3.46121 14.1429 3.46121H14.1156V2.33031C14.1156 1.59683 13.5109 1 12.7676 1H8.23254C7.48912 1 6.88441 1.59683 6.88441 2.33031V3.46121H6.85713C6.57654 3.46121 6.34747 3.67929 6.32997 3.95464H4.27685C2.74565 3.95464 1.5 5.1965 1.5 6.72305V16.7386C1.5 17.9855 2.51754 19 3.76829 19H17.2317C18.4825 19 19.5 17.9855 19.5 16.7386V6.72305C19.5 5.1965 18.2542 3.95464 16.7232 3.95464ZM10.8295 5.00932C11.3014 5.10326 11.712 5.36995 11.9886 5.7645C12.2731 6.1703 12.382 6.66235 12.2953 7.14973C12.2611 7.34213 12.1979 7.52437 12.1078 7.69383L10.6215 7.86398C10.4696 7.88129 10.3326 7.96341 10.246 8.08907L8.06876 11.245C7.98928 11.3602 7.95897 11.5022 7.98446 11.6398C8.00994 11.7775 8.08928 11.8991 8.20485 11.9784L10.3763 13.4673C10.4678 13.53 10.5722 13.5601 10.6755 13.5601C10.8438 13.5601 11.0093 13.4803 11.1117 13.3316L13.289 10.1756C13.3756 10.05 13.4036 9.89316 13.3654 9.74553L12.989 8.28517C13.1599 7.99156 13.2767 7.67227 13.3369 7.33403C13.473 6.56911 13.3022 5.79718 12.8558 5.16052C12.8194 5.10847 12.781 5.05849 12.7416 5.00932H14.6516V17.9453H6.34843V5.00932H10.8295ZM12.2811 9.7756L10.5399 12.2994L9.24016 11.4082L10.9813 8.88434L12.0206 8.76555L12.2811 9.7756ZM7.94231 2.33031C7.94231 2.1732 8.06711 2.05469 8.23254 2.05469H12.7676C12.933 2.05469 13.0577 2.1732 13.0577 2.33031V3.46121H13.0304C12.7498 3.46121 12.5208 3.67929 12.5033 3.95464H8.49688C8.47925 3.67929 8.25031 3.46121 7.96958 3.46121H7.94231V2.33031ZM2.5579 16.7386V6.72305C2.5579 5.77809 3.32901 5.00932 4.27685 5.00932H5.29039V17.9453H3.76829C3.1009 17.9453 2.5579 17.404 2.5579 16.7386ZM18.4421 16.7386C18.4421 17.404 17.8992 17.9453 17.2317 17.9453H15.7096V5.00932H16.7232C17.671 5.00932 18.4421 5.77809 18.4421 6.72305V16.7386Z" fill="#FB4156"/>
</svg>
