<svg width="12" height="12" viewBox="0 0 12 12" fill="none" xmlns="http://www.w3.org/2000/svg">
<path d="M5.84111 0.00236661C2.65759 0.0912031 0.0902923 2.66124 0.00232227 5.84481C-0.0856477 9.02838 2.336 11.7324 5.50976 11.9969C5.57124 12.004 5.63351 11.9987 5.6929 11.9813C5.7523 11.9639 5.80759 11.9348 5.8555 11.8956C5.90342 11.8565 5.94299 11.8081 5.97186 11.7533C6.00072 11.6986 6.01831 11.6386 6.02357 11.5769C6.02883 11.5153 6.02166 11.4532 6.00247 11.3944C5.98329 11.3355 5.95249 11.2811 5.9119 11.2344C5.87131 11.1877 5.82175 11.1496 5.76617 11.1224C5.71058 11.0952 5.6501 11.0794 5.58831 11.076C2.89438 10.8515 0.853082 8.57054 0.927752 5.86828C1.00242 3.16603 3.16598 1.00321 5.86819 0.927804C8.57041 0.852398 10.8506 2.8918 11.0759 5.58569C11.0788 5.64772 11.0941 5.70853 11.121 5.76449C11.1479 5.82046 11.1858 5.87043 11.2325 5.91143C11.2791 5.95242 11.3336 5.9836 11.3925 6.0031C11.4515 6.0226 11.5137 6.03002 11.5756 6.02492C11.6375 6.01983 11.6977 6.00232 11.7527 5.97343C11.8077 5.94455 11.8563 5.90489 11.8956 5.85682C11.9349 5.80874 11.9641 5.75324 11.9815 5.69363C11.9989 5.63402 12.0041 5.57151 11.9968 5.50985C11.7314 2.33614 9.02463 -0.0864698 5.84111 0.00236661ZM6.00182 1.8415C5.94103 1.84257 5.88106 1.85561 5.82532 1.87988C5.76958 1.90415 5.71918 1.93918 5.677 1.98296C5.63481 2.02673 5.60168 2.0784 5.57949 2.135C5.5573 2.1916 5.54649 2.25202 5.54768 2.3128V6.00823C5.54769 6.06915 5.55974 6.12946 5.58314 6.1857C5.60653 6.24195 5.64081 6.29302 5.68401 6.33597L8.29779 8.95338C8.34083 8.99642 8.39192 9.03056 8.44815 9.05385C8.50439 9.07714 8.56466 9.08913 8.62552 9.08913C8.68639 9.08913 8.74666 9.07714 8.80289 9.05385C8.85913 9.03056 8.91022 8.99642 8.95326 8.95338C8.9963 8.91034 9.03044 8.85924 9.05373 8.80301C9.07703 8.74677 9.08901 8.6865 9.08901 8.62564C9.08901 8.56477 9.07703 8.5045 9.05373 8.44826C9.03044 8.39203 8.9963 8.34093 8.95326 8.2979L6.47221 5.81772V2.3128C6.47342 2.25065 6.46209 2.18889 6.4389 2.13122C6.4157 2.07355 6.38111 2.02115 6.3372 1.97715C6.29329 1.93316 6.24095 1.89847 6.18333 1.87516C6.1257 1.85185 6.06397 1.84041 6.00182 1.8415ZM11.3567 6.98332C11.2792 6.98529 11.2034 7.00671 11.1364 7.04562C11.0304 7.10698 10.953 7.20791 10.9214 7.32624C10.8897 7.44457 10.9063 7.57063 10.9675 7.67672C11.0287 7.78289 11.1296 7.86041 11.2479 7.89224C11.3663 7.92407 11.4924 7.9076 11.5986 7.84646C11.6513 7.81615 11.6975 7.77575 11.7346 7.72757C11.7716 7.67939 11.7988 7.62437 11.8146 7.56566C11.8303 7.50696 11.8344 7.44572 11.8265 7.38546C11.8185 7.32519 11.7988 7.26708 11.7684 7.21446C11.7269 7.14249 11.6667 7.08304 11.5943 7.04236C11.5218 7.00169 11.4397 6.98129 11.3567 6.98332ZM9.93196 9.46981C9.80936 9.46981 9.69178 9.51852 9.60509 9.60521C9.5184 9.6919 9.4697 9.80948 9.4697 9.93208C9.4697 10.0547 9.5184 10.1723 9.60509 10.259C9.69178 10.3456 9.80936 10.3943 9.93196 10.3943C10.0546 10.3943 10.1721 10.3456 10.2588 10.259C10.3455 10.1723 10.3942 10.0547 10.3942 9.93208C10.3942 9.80948 10.3455 9.6919 10.2588 9.60521C10.1721 9.51852 10.0546 9.46981 9.93196 9.46981ZM7.42382 10.9063C7.34645 10.91 7.27126 10.9331 7.20516 10.9735C7.13905 11.0139 7.08416 11.0703 7.04552 11.1374C6.98431 11.2435 6.9677 11.3696 6.99936 11.4879C7.03102 11.6062 7.10834 11.7072 7.21436 11.7685C7.32045 11.8297 7.44651 11.8463 7.56484 11.8147C7.68317 11.783 7.78409 11.7057 7.84545 11.5997C7.87591 11.5471 7.89569 11.489 7.90369 11.4288C7.91168 11.3686 7.90773 11.3074 7.89205 11.2487C7.87637 11.19 7.84927 11.1349 7.8123 11.0867C7.77534 11.0385 7.72923 10.9981 7.67662 10.9677C7.59997 10.9234 7.51223 10.9021 7.42382 10.9063Z" fill="#1B911F"/>
</svg>
